<svg xmlns="http://www.w3.org/2000/svg" version="1.1" xmlns:xlink="http://www.w3.org/1999/xlink" xmlns:svgjs="http://svgjs.dev/svgjs" width="100%" height="100%" viewBox="0 0 1000 600"><rect width="1000" height="600" x="0" y="0" fill="#ffea00"/><g><circle r="166.66666666666666" cx="305.3036753336588" cy="327.5259158077389" fill="#000000" transform="matrix(0.901635182321376,0,0,0.901635182321376,0,4.69112372431286)"/><path d="M355.8747057033981 402.5259359880181L355.8747057033981 402.5259359880181Q354.6412657420992 402.5259359880181 354.6412657420992 400.77856270951133L354.6412657420992 400.77856270951133L354.88110129012955 399.06545165215186Q356.35437679945875 394.1316918069564 356.35437679945875 389.67760305782167L356.35437679945875 389.67760305782167Q356.35437679945875 368.2294526196804 327.5055865935243 351.6807998055874L327.5055865935243 351.6807998055874Q303.07662291557756 337.87312468326957 267.3068640379106 331.2262537807147L267.3068640379106 331.2262537807147L261.8934330966546 333.1792003861045Q249.55903348366596 355.8950530066918 240.17118488933576 368.2294526196804L240.17118488933576 368.2294526196804Q251.75181563708617 376.10976348353427 265.31965521137363 376.10976348353427L265.31965521137363 376.10976348353427Q274.94733935373415 376.10976348353427 278.4078236896004 371.1760036383388L278.4078236896004 371.1760036383388Q278.88749478566103 370.6963325422781 279.6412636508992 371.1760036383388L279.6412636508992 371.1760036383388Q280.6348680641678 371.6899369555466 280.12093474695985 372.64927914766804L280.12093474695985 372.64927914766804Q276.4206148630633 377.8571367620409 265.83358852858146 377.8571367620409L265.83358852858146 377.8571367620409Q251.5119800890558 377.8571367620409 239.17758047606722 369.94256367703997L239.17758047606722 369.94256367703997Q223.3826965272124 390.1915363750295 209.57502140489464 390.1915363750295L209.57502140489464 390.1915363750295Q201.18077722383296 390.1915363750295 195.2876751865162 384.64105654918467Q189.36031092805223 379.0905767233397 189.36031092805223 370.1823992250703L189.36031092805223 370.1823992250703Q189.36031092805223 369.223057032949 189.36031092805223 368.332239283122Q189.36031092805223 367.47568375444223 189.60014647608256 366.48207934117374L189.60014647608256 366.48207934117374Q189.8399820241129 364.015199418576 192.30686194671063 364.015199418576L192.30686194671063 364.015199418576Q193.5403019080095 364.015199418576 193.5403019080095 365.5227371490523L193.5403019080095 365.5227371490523Q193.5403019080095 365.76257269708276 193.43751524456792 366.3792926777321Q193.30046635997914 366.9960126583816 193.0606308119488 367.98961707165006L193.0606308119488 367.98961707165006Q192.82079526391848 368.94895926377137 192.6837463793297 369.83977701359834Q192.54669749474095 370.6963325422781 192.54669749474095 371.1760036383388L192.54669749474095 371.1760036383388Q192.54669749474095 376.6236968007421 197.24062179190605 380.9407366652881Q201.93454608907115 385.25777652983413 208.5814169916261 385.25777652983413L208.5814169916261 385.25777652983413Q214.26894570205974 385.25777652983413 220.8130299411731 380.6666388961106Q227.35711418028652 376.10976348353427 234.2438206308718 366.2422437931434L234.2438206308718 366.2422437931434Q230.5435007469752 363.295692774485 227.35711418028652 359.355537342558L227.35711418028652 359.355537342558Q224.8902342576888 362.54192390924675 219.4425410952855 367.98961707165006L219.4425410952855 367.98961707165006Q212.28173687552268 375.11615907026567 211.32239468340134 375.11615907026567L211.32239468340134 375.11615907026567Q210.0889547221025 375.11615907026567 210.0889547221025 373.88271910896685L210.0889547221025 373.88271910896685L210.32879027013283 373.4030480129062Q219.20270554725516 366.2422437931434 225.84957644981012 357.6081640640514L225.84957644981012 357.6081640640514Q223.3826965272124 354.42177749736265 220.9158166046147 350.8242442769076Q218.44893668201698 347.2609732775999 216.49599007662712 343.3208178456729L216.49599007662712 343.3208178456729L207.6220747995048 343.5606533937032Q199.70750171450376 343.0467200764954 194.533906321278 340.2372179424258Q189.36031092805223 337.3934535872089 189.36031092805223 333.453298155282L189.36031092805223 333.453298155282Q189.36031092805223 325.7785606183114 208.34158144359577 322.35233850359236L208.34158144359577 322.35233850359236Q204.64126155969922 309.2641700253655 204.64126155969922 298.40304592170617L204.64126155969922 298.40304592170617Q204.64126155969922 276.71505993553455 215.26255011532828 263.3870559092775L215.26255011532828 263.3870559092775Q223.89662984442026 252.52593180561806 235.23742504414034 252.52593180561806L235.23742504414034 252.52593180561806Q244.62527363847053 252.52593180561806 250.5183756757873 260.1664071214416L250.5183756757873 260.1664071214416Q257.1995087994894 268.32081575447285 257.1995087994894 282.60816197285135L257.1995087994894 282.60816197285135Q257.1995087994894 298.16321037367584 248.56542907039744 321.35873409032376L248.56542907039744 321.35873409032376L258.4329487607883 322.07824073441475L273.23422829637457 288.05585513525466L277.9281525935397 278.1883354448638Q282.10814357349693 272.50080673443017 289.0291122452294 272.50080673443017L289.0291122452294 272.50080673443017Q292.45533435994844 272.50080673443017 292.45533435994844 274.96768665702785L292.45533435994844 274.96768665702785Q292.45533435994844 276.71505993553455 291.4959921678271 277.6744021276559L291.4959921678271 277.6744021276559Q289.7486188893204 280.65521536746144 283.58141908282613 292.13305945177035Q277.41421927633183 303.576641314932 267.0670284898803 323.3116806957137L267.0670284898803 323.3116806957137L271.48685501786787 324.06544956095183Q290.74222330258897 316.18513869709807 307.3936627801236 305.8036856894993Q324.0451022576581 295.45649490304777 335.3858974573782 284.83520634741876Q346.7266926570983 274.24818001293687 349.70750589690385 265.34000251466733L349.70750589690385 265.34000251466733Q350.94094585820267 261.9137803999483 352.17438581950154 261.9137803999483L352.17438581950154 261.9137803999483Q353.1679902327701 261.9137803999483 353.1679902327701 263.6268914573078L353.1679902327701 263.6268914573078L352.8938924635925 265.10016696663695Q350.42701254099484 280.8950509154918 328.7390265548232 298.40304592170617L328.7390265548232 298.40304592170617Q309.4836582701022 313.95809432253066 281.3543747082588 325.7785606183114L281.3543747082588 325.7785606183114Q296.90942310908326 328.9992094061473 309.7234938181325 333.55608481872366Q322.57182674832893 338.1129602313 332.4393464387198 343.80048894173353L332.4393464387198 343.80048894173353Q360.8084655485935 360.31487953467945 360.8084655485935 385.49761207786446L360.8084655485935 385.49761207786446Q360.8084655485935 391.9046474323891 358.82125672205643 399.3052872001822L358.82125672205643 399.3052872001822Q357.82765230878795 402.5259359880181 355.8747057033981 402.5259359880181ZM211.56223023143167 321.8384051863844L211.56223023143167 321.8384051863844Q221.18991437379222 320.3651296770553 232.29087402548194 320.3651296770553L232.29087402548194 320.3651296770553Q235.47726059217067 320.3651296770553 238.80069604344814 320.5021785616441Q242.15839371587282 320.6049652250856 245.34478028256154 320.84480077311594L245.34478028256154 320.84480077311594Q253.25935336756254 297.9233748256455 253.25935336756254 282.88225974202885L253.25935336756254 282.88225974202885Q253.25935336756254 269.31442016774145 247.81166020515923 261.6396826307707L247.81166020515923 261.6396826307707Q242.63806481193348 254.75297618018544 234.99758949610998 254.75297618018544L234.99758949610998 254.75297618018544Q225.13006980571913 254.75297618018544 217.72943003792597 265.10016696663695L217.72943003792597 265.10016696663695Q213.2753412887912 271.26736677313124 210.94551025078226 279.79865983878176Q208.5814169916261 288.295690683285 208.5814169916261 299.1568147869443L208.5814169916261 299.1568147869443Q208.5814169916261 309.50400557339594 211.56223023143167 321.8384051863844ZM216.97566117268778 337.87312468326957L216.97566117268778 337.87312468326957Q220.9158166046147 337.3934535872089 226.60334531504833 336.53689805852923Q232.29087402548194 335.64608030870227 239.93134934130543 333.9329692513427L239.93134934130543 333.9329692513427Q240.92495375457395 332.2198581939832 241.64446039866496 330.36969825203494Q242.39822926390315 328.51953831008666 243.11773590799413 326.7721650315799L243.11773590799413 326.7721650315799Q238.45807383197624 326.29249393551925 234.38086951546057 326.29249393551925Q230.30366519894488 326.29249393551925 226.363509767018 326.29249393551925L226.363509767018 326.29249393551925Q222.66318988312142 326.29249393551925 219.20270554725516 326.29249393551925Q215.74222121138894 326.29249393551925 212.79567019273054 326.7721650315799L212.79567019273054 326.7721650315799Q213.78927460599908 329.47888050220797 214.7486167981204 332.32264485742473Q215.74222121138894 335.1664092126416 216.97566117268778 337.87312468326957ZM206.86830593426657 337.87312468326957L206.86830593426657 337.87312468326957Q210.0889547221025 338.1129602313 213.78927460599908 337.87312468326957L213.78927460599908 337.87312468326957Q212.79567019273054 335.1664092126416 211.66501689487325 332.45969374201354Q210.56862581816316 329.7529782713855 209.57502140489464 327.01200057961023L209.57502140489464 327.01200057961023L208.34158144359577 327.52593389681806Q204.4014260116689 328.0056049928787 202.0715949736599 329.855764934827Q199.70750171450376 331.7059248767754 199.70750171450376 333.69313370331236L199.70750171450376 333.69313370331236Q199.70750171450376 337.3934535872089 206.86830593426657 337.87312468326957ZM243.39183367717166 333.1792003861045L243.39183367717166 333.1792003861045Q252.74542005035468 331.2262537807147 252.74542005035468 329.23904495417764L252.74542005035468 329.23904495417764Q252.74542005035468 327.28609834878773 246.0985491477997 327.01200057961023L246.0985491477997 327.01200057961023Q245.58461583059187 328.759373858117 244.86510918650086 330.23264936744613Q244.11134032126267 331.7059248767754 243.39183367717166 333.1792003861045ZM235.47726059217067 364.76896828381416L235.47726059217067 364.76896828381416Q239.41741602409758 359.355537342558 243.39183367717166 352.2975197862369Q247.33198910909857 345.2737644510628 251.5119800890558 336.63968472197075L251.5119800890558 336.63968472197075L240.4110204373661 339.6204979617763Q234.99758949610998 349.21391988298967 228.59055414158536 357.6081640640514L228.59055414158536 357.6081640640514Q230.30366519894488 359.59537289058835 232.0167762563044 361.30848394794793Q233.76414953481114 363.0558572264547 235.47726059217067 364.76896828381416ZM227.35711418028652 355.8950530066918L227.35711418028652 355.8950530066918Q232.53070957351227 348.734248786929 236.95053610149986 340.3400046058673L236.95053610149986 340.3400046058673Q232.29087402548194 341.3336090191359 227.97383416093595 341.95032899978526Q223.65679429638993 342.5670489804347 219.4425410952855 343.0467200764954L219.4425410952855 343.0467200764954Q222.90302543115175 350.20752429625816 227.35711418028652 355.8950530066918ZM395.34478446496155 385.7374476258948L394.35118005169306 386.21711872195544L393.1177400903942 385.7374476258948Q392.12413567712565 383.5104032513274 391.40462903303467 380.563852232669Q390.6508601677965 377.5830389928634 389.89709130255824 373.88271910896685L389.89709130255824 373.88271910896685L387.1903758319302 361.82241726515576Q419.4996503737309 341.81328011519656 420.01358369093873 342.08737788437406L420.01358369093873 342.08737788437406L421.24702365223754 342.5670489804347L421.24702365223754 343.5606533937032Q419.4996503737309 346.5072044123616 409.3922951353096 353.9078441801548L409.3922951353096 353.9078441801548L396.33838887823003 363.295692774485L396.06429110905253 384.26417211656553L395.34478446496155 385.7374476258948Z " fill="#874c7b" transform="matrix(0.901635182321376,0,0,0.901635182321376,0,4.69112372431286)"/><path d="M721.818065078398 402.5259359880181L721.818065078398 402.5259359880181Q720.5846251170991 402.5259359880181 720.5846251170991 400.77856270951133L720.5846251170991 400.77856270951133L720.8244606651295 399.06545165215186Q722.2977361744587 394.1316918069564 722.2977361744587 389.67760305782167L722.2977361744587 389.67760305782167Q722.2977361744587 368.2294526196804 693.4489459685243 351.6807998055874L693.4489459685243 351.6807998055874Q669.0199822905774 337.87312468326957 633.2502234129106 331.2262537807147L633.2502234129106 331.2262537807147L627.8367924716545 333.1792003861045Q615.5023928586659 355.8950530066918 606.1145442643357 368.2294526196804L606.1145442643357 368.2294526196804Q617.6951750120861 376.10976348353427 631.2630145863735 376.10976348353427L631.2630145863735 376.10976348353427Q640.890698728734 376.10976348353427 644.3511830646003 371.1760036383388L644.3511830646003 371.1760036383388Q644.8308541606609 370.6963325422781 645.5846230258992 371.1760036383388L645.5846230258992 371.1760036383388Q646.5782274391677 371.6899369555466 646.0642941219598 372.64927914766804L646.0642941219598 372.64927914766804Q642.3639742380633 377.8571367620409 631.7769479035815 377.8571367620409L631.7769479035815 377.8571367620409Q617.4553394640558 377.8571367620409 605.1209398510672 369.94256367703997L605.1209398510672 369.94256367703997Q589.3260559022124 390.1915363750295 575.5183807798946 390.1915363750295L575.5183807798946 390.1915363750295Q567.1241365988329 390.1915363750295 561.2310345615161 384.64105654918467Q555.3036703030522 379.0905767233397 555.3036703030522 370.1823992250703L555.3036703030522 370.1823992250703Q555.3036703030522 369.223057032949 555.3036703030522 368.332239283122Q555.3036703030522 367.47568375444223 555.5435058510825 366.48207934117374L555.5435058510825 366.48207934117374Q555.7833413991128 364.015199418576 558.2502213217106 364.015199418576L558.2502213217106 364.015199418576Q559.4836612830095 364.015199418576 559.4836612830095 365.5227371490523L559.4836612830095 365.5227371490523Q559.4836612830095 365.76257269708276 559.3808746195679 366.3792926777321Q559.243825734979 366.9960126583816 559.0039901869488 367.98961707165006L559.0039901869488 367.98961707165006Q558.7641546389184 368.94895926377137 558.6271057543297 369.83977701359834Q558.4900568697409 370.6963325422781 558.4900568697409 371.1760036383388L558.4900568697409 371.1760036383388Q558.4900568697409 376.6236968007421 563.183981166906 380.9407366652881Q567.8779054640711 385.25777652983413 574.524776366626 385.25777652983413L574.524776366626 385.25777652983413Q580.2123050770597 385.25777652983413 586.756389316173 380.6666388961106Q593.3004735552864 376.10976348353427 600.1871800058718 366.2422437931434L600.1871800058718 366.2422437931434Q596.4868601219752 363.295692774485 593.3004735552864 359.355537342558L593.3004735552864 359.355537342558Q590.8335936326887 362.54192390924675 585.3859004702854 367.98961707165006L585.3859004702854 367.98961707165006Q578.2250962505226 375.11615907026567 577.2657540584013 375.11615907026567L577.2657540584013 375.11615907026567Q576.0323140971025 375.11615907026567 576.0323140971025 373.88271910896685L576.0323140971025 373.88271910896685L576.2721496451328 373.4030480129062Q585.1460649222552 366.2422437931434 591.79293582481 357.6081640640514L591.79293582481 357.6081640640514Q589.3260559022124 354.42177749736265 586.8591759796146 350.8242442769076Q584.3922960570169 347.2609732775999 582.4393494516271 343.3208178456729L582.4393494516271 343.3208178456729L573.5654341745047 343.5606533937032Q565.6508610895037 343.0467200764954 560.477265696278 340.2372179424258Q555.3036703030522 337.3934535872089 555.3036703030522 333.453298155282L555.3036703030522 333.453298155282Q555.3036703030522 325.7785606183114 574.2849408185957 322.35233850359236L574.2849408185957 322.35233850359236Q570.5846209346992 309.2641700253655 570.5846209346992 298.40304592170617L570.5846209346992 298.40304592170617Q570.5846209346992 276.71505993553455 581.2059094903282 263.3870559092775L581.2059094903282 263.3870559092775Q589.8399892194202 252.52593180561806 601.1807844191403 252.52593180561806L601.1807844191403 252.52593180561806Q610.5686330134704 252.52593180561806 616.4617350507872 260.1664071214416L616.4617350507872 260.1664071214416Q623.1428681744894 268.32081575447285 623.1428681744894 282.60816197285135L623.1428681744894 282.60816197285135Q623.1428681744894 298.16321037367584 614.5087884453974 321.35873409032376L614.5087884453974 321.35873409032376L624.3763081357882 322.07824073441475L639.1775876713746 288.05585513525466L643.8715119685396 278.1883354448638Q648.0515029484968 272.50080673443017 654.9724716202294 272.50080673443017L654.9724716202294 272.50080673443017Q658.3986937349484 272.50080673443017 658.3986937349484 274.96768665702785L658.3986937349484 274.96768665702785Q658.3986937349484 276.71505993553455 657.439351542827 277.6744021276559L657.439351542827 277.6744021276559Q655.6919782643204 280.65521536746144 649.5247784578261 292.13305945177035Q643.3575786513318 303.576641314932 633.0103878648803 323.3116806957137L633.0103878648803 323.3116806957137L637.4302143928678 324.06544956095183Q656.6855826775889 316.18513869709807 673.3370221551235 305.8036856894993Q689.9884616326581 295.45649490304777 701.3292568323781 284.83520634741876Q712.6700520320982 274.24818001293687 715.6508652719037 265.34000251466733L715.6508652719037 265.34000251466733Q716.8843052332026 261.9137803999483 718.1177451945015 261.9137803999483L718.1177451945015 261.9137803999483Q719.11134960777 261.9137803999483 719.11134960777 263.6268914573078L719.11134960777 263.6268914573078L718.8372518385925 265.10016696663695Q716.3703719159947 280.8950509154918 694.6823859298231 298.40304592170617L694.6823859298231 298.40304592170617Q675.4270176451021 313.95809432253066 647.2977340832587 325.7785606183114L647.2977340832587 325.7785606183114Q662.8527824840831 328.9992094061473 675.6668531931324 333.55608481872366Q688.5151861233288 338.1129602313 698.3827058137198 343.80048894173353L698.3827058137198 343.80048894173353Q726.7518249235935 360.31487953467945 726.7518249235935 385.49761207786446L726.7518249235935 385.49761207786446Q726.7518249235935 391.9046474323891 724.7646160970564 399.3052872001822L724.7646160970564 399.3052872001822Q723.7710116837878 402.5259359880181 721.818065078398 402.5259359880181ZM577.5055896064316 321.8384051863844L577.5055896064316 321.8384051863844Q587.1332737487921 320.3651296770553 598.2342334004819 320.3651296770553L598.2342334004819 320.3651296770553Q601.4206199671705 320.3651296770553 604.744055418448 320.5021785616441Q608.1017530908728 320.6049652250856 611.2881396575615 320.84480077311594L611.2881396575615 320.84480077311594Q619.2027127425624 297.9233748256455 619.2027127425624 282.88225974202885L619.2027127425624 282.88225974202885Q619.2027127425624 269.31442016774145 613.7550195801591 261.6396826307707L613.7550195801591 261.6396826307707Q608.5814241869334 254.75297618018544 600.9409488711099 254.75297618018544L600.9409488711099 254.75297618018544Q591.0734291807191 254.75297618018544 583.6727894129259 265.10016696663695L583.6727894129259 265.10016696663695Q579.2187006637912 271.26736677313124 576.8888696257823 279.79865983878176Q574.524776366626 288.295690683285 574.524776366626 299.1568147869443L574.524776366626 299.1568147869443Q574.524776366626 309.50400557339594 577.5055896064316 321.8384051863844ZM582.9190205476878 337.87312468326957L582.9190205476878 337.87312468326957Q586.8591759796146 337.3934535872089 592.5467046900483 336.53689805852923Q598.2342334004819 335.64608030870227 605.8747087163053 333.9329692513427L605.8747087163053 333.9329692513427Q606.8683131295738 332.2198581939832 607.5878197736649 330.36969825203494Q608.3415886389031 328.51953831008666 609.0610952829941 326.7721650315799L609.0610952829941 326.7721650315799Q604.4014332069762 326.29249393551925 600.3242288904605 326.29249393551925Q596.2470245739448 326.29249393551925 592.306869142018 326.29249393551925L592.306869142018 326.29249393551925Q588.6065492581213 326.29249393551925 585.1460649222552 326.29249393551925Q581.6855805863888 326.29249393551925 578.7390295677305 326.7721650315799L578.7390295677305 326.7721650315799Q579.732633980999 329.47888050220797 580.6919761731203 332.32264485742473Q581.6855805863888 335.1664092126416 582.9190205476878 337.87312468326957ZM572.8116653092666 337.87312468326957L572.8116653092666 337.87312468326957Q576.0323140971025 338.1129602313 579.732633980999 337.87312468326957L579.732633980999 337.87312468326957Q578.7390295677305 335.1664092126416 577.6083762698731 332.45969374201354Q576.5119851931631 329.7529782713855 575.5183807798946 327.01200057961023L575.5183807798946 327.01200057961023L574.2849408185957 327.52593389681806Q570.3447853866688 328.0056049928787 568.0149543486598 329.855764934827Q565.6508610895037 331.7059248767754 565.6508610895037 333.69313370331236L565.6508610895037 333.69313370331236Q565.6508610895037 337.3934535872089 572.8116653092666 337.87312468326957ZM609.3351930521716 333.1792003861045L609.3351930521716 333.1792003861045Q618.6887794253546 331.2262537807147 618.6887794253546 329.23904495417764L618.6887794253546 329.23904495417764Q618.6887794253546 327.28609834878773 612.0419085227996 327.01200057961023L612.0419085227996 327.01200057961023Q611.5279752055918 328.759373858117 610.8084685615008 330.23264936744613Q610.0546996962626 331.7059248767754 609.3351930521716 333.1792003861045ZM601.4206199671705 364.76896828381416L601.4206199671705 364.76896828381416Q605.3607753990975 359.355537342558 609.3351930521716 352.2975197862369Q613.2753484840985 345.2737644510628 617.4553394640558 336.63968472197075L617.4553394640558 336.63968472197075L606.354379812366 339.6204979617763Q600.9409488711099 349.21391988298967 594.5339135165852 357.6081640640514L594.5339135165852 357.6081640640514Q596.2470245739448 359.59537289058835 597.9601356313044 361.30848394794793Q599.707508909811 363.0558572264547 601.4206199671705 364.76896828381416ZM593.3004735552864 355.8950530066918L593.3004735552864 355.8950530066918Q598.4740689485122 348.734248786929 602.8938954764998 340.3400046058673L602.8938954764998 340.3400046058673Q598.2342334004819 341.3336090191359 593.9171935359359 341.95032899978526Q589.6001536713899 342.5670489804347 585.3859004702854 343.0467200764954L585.3859004702854 343.0467200764954Q588.8463848061517 350.20752429625816 593.3004735552864 355.8950530066918ZM739.8057311806731 389.67760305782167L739.8057311806731 389.67760305782167Q734.1524646913866 389.67760305782167 734.1524646913866 382.27696329002845L734.1524646913866 382.27696329002845Q734.1524646913866 376.3495990315646 738.5722912193742 369.4628925809793L738.5722912193742 369.4628925809793Q748.9537442269728 353.9078441801548 761.0483082919312 348.4944132388987L761.0483082919312 348.4944132388987Q766.2219036851569 346.02753331630095 771.1556635303524 346.02753331630095L771.1556635303524 346.02753331630095Q773.62254345295 346.02753331630095 776.5690944716084 347.3637599410414Q779.549907711414 348.734248786929 779.549907711414 351.20112870952676L779.549907711414 351.20112870952676Q779.549907711414 352.43456867082557 777.8025344329074 352.6744042188559L777.8025344329074 352.6744042188559Q776.8089300196388 352.9142397668862 776.4663078081669 353.1883375360637Q776.0894233755478 353.42817308409406 775.8495878275174 353.6680086321245L775.8495878275174 353.6680086321245Q770.1620591170838 364.2892971877535 770.1620591170838 373.4030480129062L770.1620591170838 373.4030480129062Q770.1620591170838 384.9836787606565 779.2758099422365 384.9836787606565L779.2758099422365 384.9836787606565Q788.903494084597 384.9836787606565 803.2251025241227 369.94256367703997L803.2251025241227 369.94256367703997Q804.4585424854215 368.4692881677107 805.1780491295125 368.4692881677107L805.1780491295125 368.4692881677107Q805.9318179947508 368.4692881677107 805.9318179947508 369.4628925809793L805.9318179947508 369.4628925809793Q805.9318179947508 370.4564969942478 805.1780491295125 371.6899369555466L805.1780491295125 371.6899369555466Q788.6636585365667 389.43776750979134 776.3292589235781 389.43776750979134L776.3292589235781 389.43776750979134Q770.4018946651141 389.43776750979134 766.7015747812176 384.26417211656553L766.7015747812176 384.26417211656553Q762.7614193492907 378.8164789541622 762.5215838012604 371.1760036383388L762.5215838012604 371.1760036383388Q756.3543839947661 379.33041227137016 750.1871841882718 384.7438432126262L750.1871841882718 384.7438432126262Q743.7801488337471 389.67760305782167 739.8057311806731 389.67760305782167ZM745.013588795046 382.27696329002845L745.013588795046 382.27696329002845Q747.720304265674 382.27696329002845 752.1401307936616 378.5766434061319L752.1401307936616 378.5766434061319Q756.1145484467357 375.11615907026567 758.8212639173638 371.79272361898825Q761.5279793879919 368.4692881677107 762.7614193492907 365.0088038318445L762.7614193492907 365.0088038318445Q763.2410904453513 360.8288128518873 764.3717437432086 357.50537740060975Q765.4681348199188 354.14767972818515 766.7015747812176 351.4409642575571L766.7015747812176 351.4409642575571Q753.8875040721683 351.20112870952676 744.7394910258685 369.223057032949L744.7394910258685 369.223057032949Q742.0327755552404 374.15681687814435 742.0327755552404 378.09697231007124L742.0327755552404 378.09697231007124Q742.0327755552404 382.27696329002845 745.013588795046 382.27696329002845ZM817.7865465116787 389.43776750979134L817.7865465116787 389.43776750979134Q807.9190268212877 389.197931961761 805.6919824467203 379.33041227137016L805.6919824467203 379.33041227137016Q805.45214689869 377.5830389928634 805.3150980141013 376.10976348353427Q805.1780491295125 374.636487974205 805.1780491295125 373.16321246487587L805.1780491295125 373.16321246487587Q805.1780491295125 363.7753638705457 810.3859067438856 351.6807998055874L810.3859067438856 351.6807998055874Q807.1652579560496 351.9548975747649 805.6919824467203 351.9548975747649Q804.2187069373912 351.9548975747649 804.6983780334518 352.19473312279524L804.6983780334518 352.19473312279524Q800.758222601525 351.6807998055874 800.758222601525 348.97408433495934L800.758222601525 348.97408433495934L800.758222601525 348.4944132388987Q800.758222601525 346.74703996039193 804.2187069373912 346.74703996039193L804.2187069373912 346.74703996039193L808.6385334653788 346.5072044123616L813.0926222145135 346.5072044123616Q814.0862266277821 344.5542578069718 816.0391732331719 340.71688903848644Q818.0263820597089 336.8795202700011 821.2127686263976 331.46608932874494L821.2127686263976 331.46608932874494Q822.9601419049044 328.51953831008666 825.2899729429133 324.81921842619Q827.6540662020694 321.11889854229344 830.3607816726975 316.90464534118905L830.3607816726975 316.90464534118905Q833.8212660085638 313.95809432253066 838.7550258537592 313.95809432253066L838.7550258537592 313.95809432253066Q843.1748523817467 313.95809432253066 843.1748523817467 316.18513869709807L843.1748523817467 316.18513869709807Q843.1748523817467 316.6648097931587 842.6951812856861 317.1444808892194L842.6951812856861 317.1444808892194Q839.4745324978502 321.5985696383541 834.5407726526548 328.9992094061473Q829.6070128074595 336.3998491739404 822.9601419049044 346.5072044123616L822.9601419049044 346.5072044123616L847.1150078136737 346.5072044123616Q849.3420521882412 347.2609732775999 849.3420521882412 348.4944132388987L849.3420521882412 348.4944132388987Q849.3420521882412 350.7214576134661 843.928621246985 351.4409642575571L843.928621246985 351.4409642575571Q842.9350168337165 351.6807998055874 837.0076525752526 351.6807998055874Q831.0802883167886 351.6807998055874 820.2534264342763 351.6807998055874L820.2534264342763 351.6807998055874Q812.5786888973057 366.002408245113 812.5786888973057 374.87632352223534L812.5786888973057 374.87632352223534Q812.5786888973057 384.9836787606565 821.2127686263976 384.9836787606565L821.2127686263976 384.9836787606565Q825.4270218275021 384.9836787606565 830.3607816726975 382.27696329002845L830.3607816726975 382.27696329002845Q833.8212660085638 380.32401668463865 837.5215858924604 377.24041678139156Q841.221905776357 374.15681687814435 845.1620612082838 369.94256367703997L845.1620612082838 369.94256367703997Q846.3955011695826 368.4692881677107 847.3891055828512 368.4692881677107L847.3891055828512 368.4692881677107Q848.3484477749727 368.4692881677107 848.3484477749727 369.4628925809793L848.3484477749727 369.4628925809793Q848.3484477749727 370.6963325422781 847.6289411308816 371.4158391863691L847.6289411308816 371.4158391863691Q830.3607816726975 389.67760305782167 817.7865465116787 389.43776750979134ZM846.3955011695826 389.197931961761L846.3955011695826 389.197931961761Q842.9350168337165 389.197931961761 842.9350168337165 383.5104032513274L842.9350168337165 383.5104032513274Q842.9350168337165 381.04352332872963 843.6887856989547 378.5766434061319L843.6887856989547 378.5766434061319Q845.6417323043445 371.6899369555466 849.5818877362714 362.0622528131861Q853.5563053893455 352.43456867082557 858.9697363306017 339.86033350980665L858.9697363306017 339.86033350980665Q865.8907050023341 324.06544956095183 871.6810203762093 312.82744102467336Q877.4713357500844 301.62369470954206 882.1652600472495 294.7027260378096L882.1652600472495 294.7027260378096Q889.805735363073 283.3619308380895 898.9194861882257 283.3619308380895L898.9194861882257 283.3619308380895Q905.600619311928 283.3619308380895 905.600619311928 291.2422417019434L905.600619311928 291.2422417019434Q905.600619311928 294.7027260378096 904.1273438025987 298.916979238914L904.1273438025987 298.916979238914Q897.2063751308661 320.84480077311594 862.9098917625286 350.20752429625816L862.9098917625286 350.20752429625816Q859.4494074266623 356.6145596507828 856.5028564080039 364.015199418576Q853.5563053893455 371.4158391863691 851.5690965628086 379.8100833674308L851.5690965628086 379.8100833674308L854.5156475814669 376.8635323487724Q856.5028564080039 374.87632352223534 859.1067852151904 372.16960805160727Q861.6764518012297 369.4628925809793 865.6166072331565 365.76257269708276L865.6166072331565 365.76257269708276Q875.4841269235475 357.36832851602105 881.4114911820114 357.36832851602105L881.4114911820114 357.36832851602105Q885.3516466139382 357.36832851602105 886.1054154791765 363.7753638705457L886.1054154791765 363.7753638705457L887.3388554404754 375.86992793550394Q888.5722954017742 382.27696329002845 892.2726152856708 382.27696329002845L892.2726152856708 382.27696329002845Q896.7267040348055 382.27696329002845 903.1337393893301 377.5830389928634L903.1337393893301 377.5830389928634Q905.600619311928 375.6300923874736 907.8276636864953 373.7799324455252Q910.0204458399155 371.92977250357694 911.7678191184222 369.94256367703997L911.7678191184222 369.94256367703997Q913.0012590797211 368.4692881677107 914.2346990410199 368.4692881677107L914.2346990410199 368.4692881677107Q914.9542056851109 368.4692881677107 914.9542056851109 369.4628925809793L914.9542056851109 369.4628925809793Q914.9542056851109 370.1823992250703 914.2346990410199 371.4158391863691L914.2346990410199 371.4158391863691Q897.6860462269268 388.44416309652286 887.3388554404754 388.44416309652286L887.3388554404754 388.44416309652286Q882.6449311433103 388.44416309652286 880.6919845379203 381.28335887675996L880.6919845379203 381.28335887675996L877.7111712981149 370.1823992250703Q875.9980602407553 366.2422437931434 873.0172470009497 366.2422437931434L873.0172470009497 366.2422437931434Q870.550367078352 366.2422437931434 866.6102116464251 368.94895926377137L866.6102116464251 368.94895926377137Q861.91628734926 372.64927914766804 856.2630208599736 380.04991891546115L856.2630208599736 380.04991891546115Q855.0295808986747 381.7972921939679 853.6590920527871 383.6474521359162Q852.3228654280466 385.49761207786446 851.0894254667479 387.21072313522393L851.0894254667479 387.21072313522393Q848.3484477749727 389.197931961761 846.3955011695826 389.197931961761ZM864.8971005890656 345.2737644510628L864.8971005890656 345.2737644510628Q869.8308604342611 340.3400046058673 874.6275713948677 334.9265736646113Q879.4585445766216 329.47888050220797 884.1182066526395 323.3116806957137L884.1182066526395 323.3116806957137Q894.979330756299 308.51040116012734 898.9194861882257 298.40304592170617L898.9194861882257 298.40304592170617Q900.9066950147627 293.22945052848036 900.9066950147627 291.00240615391306L900.9066950147627 291.00240615391306Q900.9066950147627 287.06225072198606 898.1999795441347 287.06225072198606L898.1999795441347 287.06225072198606Q893.9857263430303 287.06225072198606 888.5722954017742 296.17600154713875L888.5722954017742 296.17600154713875Q881.9254244992193 307.79089451603636 875.9980602407553 320.12529412902495Q870.0706959822913 332.45969374201354 864.8971005890656 345.2737644510628ZM928.7961430285758 391.66481188435876L928.7961430285758 391.66481188435876Q914.4745345890502 391.66481188435876 914.4745345890502 375.86992793550394L914.4745345890502 375.86992793550394Q914.4745345890502 370.4564969942478 918.4146900209771 362.1650394766277Q922.354845452904 353.9078441801548 928.0423741633376 348.4944132388987L928.0423741633376 348.4944132388987Q934.9633428350702 342.08737788437406 940.6166093243565 342.08737788437406L940.6166093243565 342.08737788437406Q948.2570846401801 342.08737788437406 948.2570846401801 349.7278532001975L948.2570846401801 349.7278532001975Q948.2570846401801 354.661613045393 944.3169292082531 359.59537289058835L944.3169292082531 359.59537289058835Q936.91628944046 368.4692881677107 923.5882854142029 371.6899369555466L923.5882854142029 371.6899369555466Q923.3484498661726 373.4030480129062 923.245663202731 374.7735368587938Q923.1086143181423 376.10976348353427 923.1086143181423 377.3432034448331L923.1086143181423 377.3432034448331Q923.1086143181423 387.72465645243176 932.7362984605028 387.72465645243176L932.7362984605028 387.72465645243176Q940.3767737763263 387.72465645243176 951.9574045240767 381.28335887675996L951.9574045240767 381.28335887675996Q956.8911643692721 378.5766434061319 960.8655820223461 375.6300923874736Q964.8057374542731 372.64927914766804 967.5124529249011 369.94256367703997L967.5124529249011 369.94256367703997Q970.4590039435595 366.48207934117374 970.4590039435595 369.4628925809793L970.4590039435595 369.4628925809793Q970.4590039435595 370.6963325422781 969.4996617514381 371.6899369555466L969.4996617514381 371.6899369555466Q966.7586840596629 374.87632352223534 962.441644195117 378.19975897351287Q958.124604330571 381.55745664593746 951.9574045240767 384.7438432126262L951.9574045240767 384.7438432126262Q938.9034982669971 391.66481188435876 928.7961430285758 391.66481188435876ZM924.5818898274714 368.94895926377137L924.5818898274714 368.94895926377137Q936.6764538924297 365.0088038318445 941.1305426415644 357.1284929679907L941.1305426415644 357.1284929679907Q944.0770936602229 352.19473312279524 944.0770936602229 348.734248786929L944.0770936602229 348.734248786929Q944.0770936602229 346.02753331630095 942.3639826028633 346.02753331630095L942.3639826028633 346.02753331630095Q940.3767737763263 346.02753331630095 936.91628944046 349.5908043156088Q933.4558051045937 353.1883375360637 930.1323696533162 358.36193292928954Q926.8089342020388 363.53552832251535 924.5818898274714 368.94895926377137Z " fill="#874c7b" transform="matrix(0.901635182321376,0,0,0.901635182321376,0,4.69112372431286)"/></g></svg>